<svg width="205" height="205" viewBox="0 0 205 205" fill="none" xmlns="http://www.w3.org/2000/svg">
<path d="M193.827 0.769775H168.966C167.316 0.769775 165.98 2.10673 165.98 3.75582C165.98 5.40491 167.316 6.74186 168.966 6.74186H193.827C196.272 6.74186 198.262 8.73096 198.262 11.1763V134.848C198.262 137.293 196.273 139.282 193.827 139.282H148.581V134.024C148.581 133.358 148.532 132.705 148.445 132.063H184.758C188.223 132.063 191.042 129.244 191.042 125.779V20.2455C191.042 16.7805 188.223 13.9617 184.758 13.9617H46.2455C42.7805 13.9617 39.9617 16.7809 39.9617 20.2455V41.0288C37.4164 41.5862 34.9949 42.4748 32.7419 43.6465V11.1763C32.7419 8.73136 34.731 6.74186 37.1763 6.74186H157.022C158.671 6.74186 160.008 5.40491 160.008 3.75582C160.008 2.10673 158.671 0.769775 157.022 0.769775H37.1763C31.4384 0.769775 26.7698 5.43795 26.7698 11.1763V47.7573C20.7065 53.1413 16.876 60.9871 16.876 69.7143V80.3987C13.0507 81.6568 10.2809 85.2608 10.2809 89.5014V102.693C10.2809 107.977 14.5792 112.275 19.8625 112.275H23.5978C23.9502 116.545 25.0514 120.604 26.7698 124.323V134.848C26.7698 140.586 31.4384 145.254 37.1763 145.254H39.9617V152.475H29.7546C13.5611 152.475 0.386719 165.649 0.386719 181.843V195.035C0.387117 200.318 4.68502 204.617 9.96872 204.617H23.7837C25.4332 204.617 26.7698 203.28 26.7698 201.631C26.7698 199.982 25.4332 198.645 23.7837 198.645H9.96872C7.97843 198.645 6.3592 197.025 6.3592 195.035V181.842C6.3592 168.942 16.8541 158.447 29.755 158.447H36.171L30.1468 165.036C28.9082 166.391 28.3249 168.213 28.5463 170.035C28.768 171.858 29.7709 173.487 31.2986 174.505L57.7346 192.129C57.7386 192.132 57.743 192.135 57.747 192.138L57.7816 192.161C57.7924 192.168 57.8043 192.173 57.815 192.179C57.8505 192.202 57.8875 192.223 57.9241 192.245C57.9906 192.284 58.0571 192.321 58.126 192.355C58.1499 192.366 58.173 192.38 58.1969 192.391C58.2251 192.404 58.2546 192.413 58.2829 192.425C58.3537 192.455 58.4254 192.482 58.4982 192.506C58.5321 192.517 58.5655 192.532 58.5998 192.542C58.6189 192.548 58.6388 192.55 58.6579 192.555C58.7363 192.576 58.816 192.593 58.8956 192.607C58.9458 192.617 58.9955 192.628 59.0457 192.635C59.1651 192.651 59.2854 192.66 59.406 192.661C59.4156 192.661 59.4251 192.663 59.4347 192.663H59.4375H59.4402C59.4498 192.663 59.4594 192.661 59.4689 192.661C59.5895 192.66 59.7098 192.651 59.8292 192.635C59.8794 192.628 59.9292 192.617 59.9793 192.607C60.0593 192.593 60.1386 192.577 60.217 192.555C60.2361 192.55 60.256 192.548 60.2751 192.542C60.3094 192.532 60.3424 192.517 60.3767 192.506C60.4495 192.482 60.5212 192.455 60.5921 192.425C60.6207 192.413 60.6502 192.404 60.6781 192.391C60.7019 192.38 60.725 192.366 60.7489 192.355C60.8178 192.321 60.8847 192.284 60.9508 192.245C60.9874 192.223 61.0244 192.202 61.0599 192.179C61.0706 192.172 61.0826 192.168 61.0933 192.161L61.128 192.138C61.1319 192.135 61.1363 192.132 61.1403 192.129L87.5759 174.505C89.1036 173.487 90.1065 171.858 90.3282 170.036C90.55 168.213 89.9667 166.392 88.7281 165.037L82.7039 158.447H89.1191C96.4011 158.447 103.253 161.875 107.65 167.562C106.581 168.672 105.919 170.177 105.919 171.837V195.261C105.919 196.454 106.146 197.594 106.555 198.645H35.7275C34.078 198.645 32.7415 199.982 32.7415 201.631C32.7415 203.28 34.078 204.617 35.7275 204.617H108.905C109.999 204.617 111.082 204.425 112.106 204.063C113.096 204.421 114.164 204.617 115.276 204.617H135.515C140.674 204.617 144.871 200.42 144.871 195.261V171.837C144.871 170.417 144.384 169.112 143.575 168.068C146.639 165.402 148.581 161.479 148.581 157.109V145.254H193.827C199.565 145.254 204.233 140.586 204.233 134.848V11.1763C204.234 5.43795 199.565 0.769775 193.827 0.769775V0.769775ZM142.609 157.109C142.609 161.827 138.77 165.666 134.052 165.666H125.558C124.003 165.666 122.682 164.478 122.613 163.019C122.577 162.246 122.849 161.514 123.379 160.958C123.908 160.404 124.62 160.098 125.385 160.096C125.388 160.096 125.392 160.096 125.395 160.096H131.166C132.816 160.096 134.152 158.759 134.152 157.11C134.152 155.461 132.816 154.124 131.166 154.124H125.414C125.408 154.124 125.401 154.123 125.395 154.123H122.51C120.974 154.123 119.724 152.874 119.724 151.338C119.724 149.802 120.974 148.553 122.51 148.553H131.167C132.816 148.553 134.153 147.216 134.153 145.566C134.153 143.917 132.816 142.58 131.167 142.58H122.51C120.974 142.58 119.724 141.331 119.724 139.795C119.724 138.259 120.974 137.01 122.51 137.01H131.167C132.816 137.01 134.153 135.673 134.153 134.024C134.153 132.375 132.816 131.038 131.167 131.038H122.51C121.741 131.038 121.025 130.731 120.494 130.174C119.963 129.619 119.691 128.886 119.728 128.114C119.796 126.654 121.117 125.467 122.672 125.467H134.052C138.77 125.467 142.609 129.306 142.609 134.024V157.109ZM79.2628 139.282C82.2739 137.285 84.9685 134.849 87.2534 132.063H102.209V139.282H79.2628ZM29.4453 109.29L29.4449 85.8918H53.9495C61.0746 85.8918 67.4436 82.6004 71.6225 77.4608C74.372 82.4802 79.7051 85.8918 85.8205 85.8918H89.4304L89.43 109.289V109.29C89.43 125.829 75.9753 139.283 59.4375 139.283C42.9 139.283 29.4453 125.828 29.4453 109.29ZM99.0124 85.8918C101.003 85.8918 102.622 87.5111 102.622 89.5014V102.693C102.622 104.684 101.003 106.303 99.0124 106.303H95.4025L95.4029 85.8918H99.0124ZM70.2772 160.307H48.5973L45.9338 154.78V142.622C50.1055 144.318 54.6638 145.256 59.4379 145.256C64.2111 145.256 68.7694 144.318 72.9407 142.622V154.781L70.2772 160.307ZM67.399 166.279L59.4375 182.798L51.4759 166.279H67.399ZM115.925 134.027C114.573 135.569 113.752 137.588 113.752 139.795C113.752 142.004 114.574 144.024 115.929 145.566C115.221 146.371 114.664 147.309 114.289 148.334C114.145 148.344 113.999 148.352 113.853 148.352C110.726 148.352 108.182 145.808 108.182 142.681V131.139C108.182 128.012 110.726 125.468 113.853 125.468C113.973 125.468 114.091 125.473 114.21 125.481C113.959 126.225 113.801 127.012 113.762 127.833C113.654 130.13 114.42 132.315 115.925 134.027ZM111.067 159.995V153.984C111.96 154.204 112.893 154.324 113.853 154.324C113.994 154.324 114.134 154.311 114.275 154.306C114.924 156.102 116.142 157.629 117.715 158.662C116.943 160.061 116.57 161.652 116.648 163.299C116.686 164.125 116.846 164.917 117.1 165.666H116.738C113.611 165.666 111.067 163.122 111.067 159.995ZM45.9338 20.2455C45.9338 20.0735 46.0739 19.9338 46.2455 19.9338H184.758C184.93 19.9338 185.07 20.0739 185.07 20.2455V125.779C185.07 125.951 184.93 126.091 184.758 126.091H146.215C143.618 122.123 139.137 119.495 134.052 119.495H125.083V69.7143C125.083 68.0652 123.746 66.7282 122.097 66.7282C120.447 66.7282 119.111 68.0652 119.111 69.7143V120.224C118.917 120.307 118.723 120.39 118.538 120.485C117.07 119.838 115.482 119.496 113.852 119.496C109.175 119.496 105.136 122.269 103.286 126.257C102.979 126.151 102.652 126.091 102.31 126.091H91.2288C93.4497 121.905 94.8682 117.231 95.2775 112.275H99.0124C104.296 112.275 108.594 107.977 108.594 102.693V89.5018C108.594 85.2608 105.824 81.6568 101.998 80.3991V69.7147C101.998 53.5204 88.8233 40.3452 72.629 40.3452H46.2455C46.1408 40.3452 46.0377 40.3519 45.9334 40.3531V20.2455H45.9338ZM46.2459 46.3168H72.6294C85.5307 46.3168 96.0268 56.813 96.0268 69.7143V79.9198H92.4173H92.4169H85.8213C80.3226 79.9198 75.828 75.547 75.6258 70.0965C76.3361 67.896 76.7238 65.5517 76.7238 63.1183C76.7238 61.4692 75.3873 60.1323 73.7378 60.1323C72.0883 60.1323 70.7518 61.4692 70.7518 63.1183C70.7518 72.3826 63.2146 79.9198 53.9503 79.9198H26.4588H26.4584H22.8485V69.7143C22.8485 56.813 33.3446 46.3168 46.2459 46.3168ZM16.2529 102.693V89.5018C16.2529 87.5115 17.8722 85.8922 19.8625 85.8922H23.4728L23.4732 106.304H19.8629C17.8722 106.303 16.2529 104.684 16.2529 102.693ZM32.7419 134.848V133.364C34.7712 135.612 37.0804 137.603 39.6129 139.283H37.1763C34.731 139.282 32.7419 137.293 32.7419 134.848ZM34.4746 169.314C34.457 169.172 34.5299 169.092 34.5538 169.066L42.173 160.732L52.005 181.132L34.6107 169.536C34.5813 169.516 34.4917 169.457 34.4746 169.314ZM84.4004 169.314C84.3832 169.457 84.2933 169.516 84.2638 169.536L66.8695 181.133L76.7015 160.732L84.3207 169.066C84.3446 169.092 84.4179 169.172 84.4004 169.314ZM78.9128 152.475V145.254H102.5C102.934 147.171 103.842 148.91 105.095 150.341V157.22C100.406 154.181 94.8706 152.475 89.1199 152.475H78.9128ZM135.515 198.645H115.276C113.41 198.645 111.892 197.127 111.892 195.261V184.829H138.899V195.261C138.899 197.127 137.38 198.645 135.515 198.645ZM138.7 171.638C138.809 171.638 138.899 171.727 138.899 171.837V178.857H111.892V171.837C111.892 171.735 111.969 171.654 112.068 171.643C112.092 171.642 112.116 171.639 112.14 171.638H116.738H125.558H134.052H138.7Z" fill="#D97C4C" fill-opacity="0.5"/>
<path d="M46.2458 102.38C47.8953 102.38 49.2318 101.044 49.2318 99.3944V96.0966C49.2318 94.4475 47.8953 93.1106 46.2458 93.1106C44.5963 93.1106 43.2598 94.4475 43.2598 96.0966V99.3944C43.2598 101.044 44.5963 102.38 46.2458 102.38Z" fill="#D97C4C" fill-opacity="0.5"/>
<path d="M72.6293 102.38C74.2788 102.38 75.6154 101.044 75.6154 99.3944V96.0966C75.6154 94.4475 74.2788 93.1106 72.6293 93.1106C70.9799 93.1106 69.6433 94.4475 69.6433 96.0966V99.3944C69.6433 101.044 70.9799 102.38 72.6293 102.38Z" fill="#D97C4C" fill-opacity="0.5"/>
<path d="M59.4378 118.872C62.8423 118.872 66.0202 117.038 67.7318 114.086C68.5587 112.659 68.0722 110.832 66.6453 110.005C65.2184 109.178 63.3913 109.664 62.5644 111.09C61.9178 112.206 60.7194 112.9 59.4374 112.9C58.1554 112.9 56.957 112.206 56.3104 111.09C55.4831 109.663 53.6564 109.177 52.2295 110.005C50.8025 110.832 50.316 112.659 51.1434 114.086C52.8554 117.038 56.0333 118.872 59.4378 118.872Z" fill="#D97C4C" fill-opacity="0.5"/>
</svg>
