<svg width="205" height="204" viewBox="0 0 205 204" fill="none" xmlns="http://www.w3.org/2000/svg">
<path d="M200.774 47.3039C203.91 44.2475 205.017 39.7618 203.664 35.5976C202.311 31.4335 198.778 28.4556 194.445 27.826L176.969 25.2865C175.196 25.0286 173.665 23.9157 172.872 22.3094L165.056 6.47321C163.118 2.54654 159.194 0.107422 154.816 0.107422C150.438 0.107422 146.514 2.54654 144.576 6.47321L136.761 22.3094C135.968 23.9157 134.436 25.0286 132.663 25.2865L115.187 27.826C110.854 28.4556 107.321 31.4335 105.968 35.598C104.615 39.7622 105.723 44.2479 108.858 47.3039L121.504 59.6306C122.787 60.8811 123.372 62.6818 123.069 64.4479L120.084 81.8533C119.344 86.1689 121.084 90.4486 124.626 93.0224C126.628 94.4769 128.97 95.2157 131.328 95.2157C133.143 95.2157 134.967 94.7778 136.653 93.8919L152.284 85.674C153.87 84.8403 155.763 84.8403 157.349 85.674L172.98 93.8919C176.856 95.9294 181.463 95.5962 185.006 93.0228C188.549 90.4494 190.289 86.1693 189.549 81.8541L188.978 78.5228C188.699 76.8958 187.153 75.8015 185.528 76.0821C183.901 76.361 182.808 77.9055 183.087 79.5325L183.658 82.8643C184.016 84.9523 183.207 86.942 181.492 88.1872C179.779 89.4325 177.636 89.5875 175.761 88.6012L160.13 80.3837C156.802 78.6339 152.83 78.6336 149.502 80.3837L133.871 88.6016C131.996 89.5879 129.854 89.4329 128.139 88.1872C126.425 86.942 125.616 84.9523 125.974 82.8643L128.959 65.4593C129.595 61.7542 128.368 57.9753 125.676 55.3513L113.03 43.0246C111.513 41.5462 110.998 39.4605 111.652 37.4458C112.307 35.4311 113.949 34.0463 116.045 33.7419L133.521 31.2024C137.242 30.662 140.456 28.3265 142.12 24.9557L149.935 9.11955C150.873 7.21997 152.697 6.08588 154.815 6.08588C156.933 6.08588 158.758 7.21997 159.695 9.11955L167.511 24.9557C169.175 28.3265 172.389 30.662 176.109 31.2024L193.585 33.7419C195.681 34.0467 197.324 35.4311 197.978 37.4454C198.633 39.4602 198.118 41.5458 196.601 43.0242L183.955 55.3509C181.263 57.9749 180.036 61.7538 180.671 65.4585L180.77 66.0375C181.049 67.6645 182.594 68.7575 184.221 68.4782C185.848 68.1992 186.941 66.6543 186.662 65.0277L186.562 64.4483C186.259 62.6826 186.844 60.8819 188.128 59.6314L200.774 47.3039Z" fill="#fff" fill-opacity="1"/>
<path d="M164.643 129.141C166.761 126.684 168.046 123.49 168.046 119.999C168.046 112.268 161.757 105.978 154.025 105.978L108.538 105.923C108.532 105.905 108.028 104.445 107.709 103.762C107.707 103.758 107.705 103.754 107.704 103.751C107.013 102.275 106.756 100.663 106.961 99.0902C107.628 93.9877 107.793 88.689 107.926 84.432C108.267 73.5123 106.088 65.5371 101.262 60.0495C96.4141 54.5357 89.4434 51.3833 82.1133 51.3833C82.0583 51.3833 82.0029 51.3833 81.9475 51.3837C77.8296 51.4104 74.4792 54.8174 74.4792 58.9788V72.2535C74.4792 80.7002 73.1116 92.4535 66.5971 100.478C59.6862 108.991 53.7181 108.917 43.8349 108.796C43.4958 108.792 43.1535 108.787 42.808 108.784V105.197C42.808 99.2488 37.9684 94.4097 32.0207 94.4097H11.1712C5.22338 94.4093 0.383789 99.2484 0.383789 105.197V135.208C0.383789 136.858 1.7215 138.196 3.37242 138.196C5.02334 138.196 6.36105 136.858 6.36105 135.208V105.197C6.36105 102.544 8.51885 100.387 11.1712 100.387H32.0203C34.6726 100.387 36.8304 102.544 36.8304 105.197V192.49C36.8304 195.143 34.6726 197.3 32.0203 197.3H11.1712C8.51885 197.3 6.36105 195.143 6.36105 192.49V148.843C6.36105 147.193 5.02334 145.855 3.37242 145.855C1.7215 145.855 0.383789 147.193 0.383789 148.843V192.49C0.383789 198.438 5.22338 203.278 11.1712 203.278H32.0203C37.9684 203.278 42.8076 198.438 42.8076 192.49V187.977H46.8483C48.8028 187.977 50.7383 188.66 52.2967 189.9C52.6996 190.221 53.1686 190.622 53.7125 191.086C57.4499 194.277 64.4059 200.216 74.3632 200.216L147.724 200.217C155.456 200.217 161.746 193.927 161.746 186.196C161.746 182.856 160.57 179.788 158.614 177.377C164.098 175.472 168.047 170.255 168.047 164.131C168.047 160.641 166.762 157.446 164.644 154.99C169.683 152.862 173.228 147.87 173.228 142.066C173.228 136.261 169.682 131.269 164.643 129.141ZM128.516 111.956H154.025C158.461 111.956 162.07 115.564 162.07 120C162.07 124.435 158.461 128.044 154.025 128.044H128.516C124.081 128.044 120.472 124.435 120.472 120C120.472 115.564 124.081 111.956 128.516 111.956ZM110.741 194.239H74.3636C66.6107 194.239 61.1849 189.606 57.5942 186.54C57.0331 186.061 56.5031 185.609 56.0194 185.224C53.4069 183.145 50.1501 182 46.8487 182H42.808V114.761C43.1288 114.765 43.4468 114.769 43.7616 114.773C54.2318 114.899 62.5047 115.003 71.2383 104.245C75.4439 99.0651 80.4568 89.3098 80.4568 72.2535V58.9792C80.4568 58.0926 81.1434 57.3669 81.987 57.3614C82.0272 57.361 82.0667 57.361 82.1069 57.361C87.6403 57.361 93.1155 59.8359 96.7744 63.9969C100.55 68.291 102.244 74.9146 101.952 84.2459C101.823 88.3718 101.663 93.5071 101.035 98.3168C100.681 101.021 101.116 103.777 102.291 106.286C102.297 106.298 102.304 106.315 102.31 106.33C102.32 106.352 102.329 106.372 102.341 106.4C102.343 106.405 102.345 106.41 102.348 106.415C103.303 108.657 104.03 111.099 104.144 113.554C104.285 116.613 103.669 119.692 102.305 122.725C102.277 122.787 99.4498 129.019 91.6606 132.476C90.1519 133.145 89.4717 134.911 90.1408 136.419C92.4552 141.638 101.049 133.793 103.169 131.595C104.968 129.731 106.707 127.55 107.764 125.159C109.508 121.281 110.299 117.284 110.114 113.279C110.094 112.834 110.053 112.371 109.998 111.901H117.082C115.455 114.19 114.495 116.984 114.495 120C114.495 125.805 118.041 130.796 123.081 132.924C120.962 135.381 119.677 138.575 119.677 142.066C119.677 145.556 120.962 148.751 123.08 151.207C118.041 153.335 114.495 158.327 114.495 164.131C114.495 167.47 115.67 170.539 117.627 172.95C112.143 174.855 108.194 180.072 108.194 186.196C108.194 189.187 109.139 191.96 110.741 194.239ZM147.724 194.24L122.2 194.239C117.772 194.23 114.171 190.626 114.171 186.196C114.171 181.76 117.78 178.152 122.216 178.152H147.725C152.16 178.152 155.769 181.76 155.769 186.196C155.769 190.631 152.16 194.24 147.724 194.24ZM154.025 172.174H128.516C124.081 172.174 120.472 168.566 120.472 164.13C120.472 159.695 124.081 156.086 128.516 156.086H154.025C158.461 156.086 162.07 159.695 162.07 164.13C162.069 168.566 158.461 172.174 154.025 172.174ZM159.207 150.109H133.698C129.262 150.109 125.654 146.501 125.654 142.066C125.654 137.63 129.262 134.021 133.698 134.021H159.207C163.642 134.021 167.251 137.63 167.251 142.066C167.251 146.501 163.642 150.109 159.207 150.109Z" fill="#fff" fill-opacity="1"/>
</svg>
