<svg width="205" height="188" viewBox="0 0 205 188" fill="none" xmlns="http://www.w3.org/2000/svg">
<path d="M193.614 165.926H188.366C184.726 157.276 184.724 148.836 188.362 140.229H193.614C199.466 140.229 204.228 135.468 204.228 129.615C204.228 123.762 199.466 119 193.614 119H172.497C175.185 115.93 176.819 111.915 176.819 107.524V74.2671C176.819 64.6457 168.992 56.8183 159.371 56.8183H150.784C151.513 55.3659 151.925 53.7283 151.925 51.9956C151.925 46.0367 147.083 41.1885 141.131 41.1885H138.177C135.541 34.6722 135.54 28.3075 138.173 21.833H141.131C147.083 21.833 151.925 16.9849 151.925 11.0259C151.925 5.07376 147.083 0.231201 141.131 0.231201H40.4008C23.1503 0.231201 9.1159 14.2604 9.1159 31.5046C9.1159 39.844 12.3751 47.6957 18.2922 53.6132C19.4687 54.7897 20.7244 55.8564 22.0423 56.8179H19.7299C13.8772 56.8179 9.1159 61.5792 9.1159 67.4322C9.1159 73.2853 13.8772 78.0466 19.7299 78.0466H24.9813C28.6195 86.6524 28.6183 95.0929 24.9773 103.743H19.7299C13.8772 103.743 9.1159 108.504 9.1159 114.357C9.1159 116.596 9.81463 118.674 11.0027 120.388C4.76464 123.05 0.380737 129.246 0.380737 136.449V169.706C0.380737 179.328 8.20257 187.155 17.8168 187.155H193.613C199.466 187.155 204.227 182.393 204.227 176.54C204.228 170.688 199.466 165.926 193.614 165.926V165.926ZM193.614 124.972C196.173 124.972 198.256 127.055 198.256 129.615C198.256 132.174 196.173 134.257 193.614 134.257H139.723C138.073 134.257 136.737 135.594 136.737 137.243C136.737 138.892 138.073 140.229 139.723 140.229H181.957C180.79 143.507 180.076 146.797 179.807 150.091C179.807 150.091 178.614 156.002 181.963 165.926H22.4735C22.0052 165.926 21.6095 165.53 21.6095 165.061V141.093C21.6095 140.625 22.0052 140.23 22.4735 140.23H52.0556L52.0576 150.036C51.8692 152.972 53.3029 154.129 54.1832 154.559C55.0754 154.996 56.9085 155.418 59.1639 153.357C59.1795 153.342 59.195 153.328 59.2101 153.314L67.5567 145.353L75.9033 153.314C75.9184 153.328 75.9339 153.343 75.9495 153.357C77.2697 154.563 78.445 154.92 79.3731 154.92C80.036 154.92 80.5726 154.738 80.9453 154.554C81.8268 154.12 83.2585 152.958 83.0558 150.029L83.0598 140.23H125.02C126.67 140.23 128.006 138.893 128.006 137.243C128.006 135.594 126.67 134.257 125.02 134.257H83.0618L83.0658 124.973H193.614V124.972ZM33.5385 87.9097C33.2694 84.6151 32.542 81.3253 31.3758 78.0474H154.727C155.196 78.0474 155.592 78.4432 155.592 78.9114V102.879C155.592 103.348 155.196 103.743 154.727 103.743H83.0746L83.0785 93.881H103.976C105.626 93.881 106.962 92.544 106.962 90.895C106.962 89.2459 105.626 87.9089 103.976 87.9089H33.5385V87.9097ZM52.048 103.744H31.3691C32.5344 100.461 33.263 97.1716 33.5353 93.8814H52.046L52.048 103.744ZM77.1064 93.8818L77.085 146.188L69.6171 139.065C68.4637 137.965 66.6489 137.965 65.4951 139.065L58.0284 146.187L58.0177 93.8814H77.1064V93.8818ZM15.088 31.505C15.088 17.5538 26.4433 6.20368 40.4008 6.20368H141.131C143.79 6.20368 145.953 8.36717 145.953 11.0263C145.953 13.6923 143.79 15.8613 141.131 15.8613H86.0853C84.4362 15.8613 83.0992 17.1983 83.0992 18.8474C83.0992 20.4965 84.4362 21.8334 86.0853 21.8334H131.81C129.703 28.257 129.705 34.7375 131.818 41.1889H40.4008C37.8329 41.1889 35.4014 40.1773 33.566 38.351C31.729 36.5044 30.7173 34.0734 30.7173 31.505C30.7173 26.1719 35.0614 21.8334 40.4008 21.8334H71.3828C73.0319 21.8334 74.3689 20.4965 74.3689 18.8474C74.3689 17.1983 73.0319 15.8613 71.3828 15.8613H40.4008C31.7684 15.8613 24.7452 22.8789 24.7452 31.505C24.7452 35.6628 26.3744 39.59 29.3429 42.5737C32.3162 45.5318 36.2431 47.161 40.4008 47.161H141.131C143.79 47.161 145.953 49.3301 145.953 51.996C145.953 54.6552 143.79 56.8187 141.131 56.8187H40.4008C33.6568 56.8187 27.3049 54.181 22.5153 49.391C17.7257 44.6014 15.088 38.2495 15.088 31.505V31.505ZM19.7299 72.0753C17.1702 72.0753 15.088 69.9931 15.088 67.433C15.088 64.8734 17.1702 62.7907 19.7299 62.7907H159.371C165.699 62.7907 170.847 67.9391 170.847 74.2675V107.524C170.847 113.852 165.699 119.001 159.371 119.001H83.0682L83.0722 109.716H154.727C158.496 109.716 161.563 106.649 161.563 102.88V78.9122C161.563 75.1426 158.496 72.0761 154.727 72.0761H19.7299V72.0753ZM19.7299 109.716H52.0492L52.0512 119H19.7303C17.1706 119 15.0884 116.918 15.0884 114.358C15.088 111.798 17.1702 109.716 19.7299 109.716V109.716ZM193.614 181.182H17.8168C11.4956 181.182 6.35282 176.034 6.35282 169.706V136.449C6.35282 130.121 11.4956 124.972 17.8168 124.972H52.052L52.054 134.257H22.4735C18.7039 134.257 15.6374 137.324 15.6374 141.093V165.061C15.6374 168.831 18.7043 171.897 22.4735 171.897H193.614C196.173 171.897 198.256 173.98 198.256 176.54C198.256 179.099 196.173 181.182 193.614 181.182Z" fill="#60B594" fill-opacity="0.5"/>
</svg>
