<svg width="20" height="20" viewBox="0 0 20 20" fill="none" xmlns="http://www.w3.org/2000/svg">
<path fill-rule="evenodd" clip-rule="evenodd" d="M13.7176 12.8834H14.6392L19.5859 17.8534C20.0642 18.3317 20.0642 19.1134 19.5859 19.5917C19.1076 20.07 18.3259 20.07 17.8476 19.5917L12.8892 14.6334V13.7117L12.5742 13.385C10.9409 14.785 8.71257 15.5084 6.34424 15.1117C3.10091 14.5634 0.510906 11.8567 0.114239 8.59005C-0.492428 3.65505 3.66091 -0.498287 8.59591 0.10838C11.8626 0.505046 14.5692 3.09505 15.1176 6.33838C15.5142 8.70671 14.7909 10.935 13.3909 12.5684L13.7176 12.8834ZM2.38919 7.6334C2.38919 10.5384 4.73419 12.8834 7.63919 12.8834C10.5442 12.8834 12.8892 10.5384 12.8892 7.6334C12.8892 4.7284 10.5442 2.3834 7.63919 2.3834C4.73419 2.3834 2.38919 4.7284 2.38919 7.6334Z" fill="black"/>
</svg>
