<svg width="18" height="19" viewBox="0 0 18 19" fill="none" xmlns="http://www.w3.org/2000/svg">
<path d="M16.1653 3.50002C16.0972 3.493 16.0285 3.493 15.9603 3.50002H1.96031C1.87058 3.5014 1.78145 3.51485 1.69531 3.54002L8.92031 10.735L16.1653 3.50002Z" fill="black"/>
<path d="M16.9048 4.19495L9.62484 11.4449C9.43748 11.6312 9.18403 11.7357 8.91984 11.7357C8.65566 11.7357 8.40221 11.6312 8.21484 11.4449L0.999844 4.24995C0.977663 4.33147 0.965903 4.41547 0.964844 4.49995V14.4999C0.964844 14.7652 1.0702 15.0195 1.25774 15.2071C1.44527 15.3946 1.69963 15.4999 1.96484 15.4999H15.9648C16.2301 15.4999 16.4844 15.3946 16.672 15.2071C16.8595 15.0195 16.9648 14.7652 16.9648 14.4999V4.49995C16.9609 4.39577 16.9406 4.29286 16.9048 4.19495ZM2.64984 14.4999H1.95484V13.7849L5.58984 10.1799L6.29484 10.8849L2.64984 14.4999ZM15.9548 14.4999H15.2548L11.6098 10.8849L12.3148 10.1799L15.9498 13.7849L15.9548 14.4999Z" fill="black"/>
</svg>
