<svg width="204" height="204" viewBox="0 0 204 204" fill="none" xmlns="http://www.w3.org/2000/svg">
<path d="M144.666 59.181V65.7567C144.666 69.3832 147.615 72.3324 151.241 72.3324H157.817V78.9081C157.817 82.5346 160.766 85.4838 164.393 85.4838H170.969C174.595 85.4838 177.544 82.5346 177.544 78.9081V72.3324H184.12C187.747 72.3324 190.696 69.3832 190.696 65.7567V59.181C190.696 55.5545 187.747 52.6053 184.12 52.6053H177.544V46.0296C177.544 42.4031 174.595 39.4539 170.969 39.4539H164.393C160.766 39.4539 157.817 42.4031 157.817 46.0296V52.6053H151.241C147.615 52.6053 144.666 55.5545 144.666 59.181ZM151.241 59.181H164.393V46.0296H170.969V59.181H184.12V65.7567H170.969V78.9081H164.393V65.7567L151.241 65.7468V59.181Z" fill="#fff" fill-opacity="1"/>
<path d="M170.968 110.291V98.468C189.374 96.801 203.847 81.3021 203.847 62.4693C203.847 42.5284 187.621 26.3028 167.681 26.3028C163.324 26.3028 159.162 27.1182 155.289 28.5353C141.322 10.6362 119.727 0 96.9687 0H32.8786C14.7493 0 0 14.7493 0 32.8786C0 51.0078 14.7493 65.7571 32.8786 65.7571H34.9729C32.2276 74.779 26.3028 96.0514 26.3028 111.787V115.075H39.4543V134.181C39.4543 150.84 53.0068 164.393 69.6664 164.393C71.6456 164.393 73.6381 164.192 75.5911 163.804L92.0599 160.513V167.49C92.0599 170.669 90.5146 173.668 87.9304 175.516L78.8822 181.98C73.4342 185.866 69.2915 191.123 66.7763 197.271H36.1664V169.042L40.4176 173.293L45.0666 168.644L32.8786 156.456L20.6905 168.644L25.3395 173.293L29.5907 169.042V197.271H16.4393V129.588L20.6905 133.839L25.3395 129.19L13.1514 117.002L0.963341 129.19L5.61237 133.839L9.86357 129.588V197.271H0V203.847H203.847V197.271H170.968V170.968H172.797C189.555 170.968 193.983 155.913 193.983 147.953V144.666H190.696C180.96 144.666 174.832 147.506 170.968 151.067V131.514H174.256C197.663 131.514 203.847 112.159 203.847 101.924V98.6357H200.559C185.527 98.6357 176.338 103.804 170.968 110.291ZM187.072 151.409C186.224 156.295 183.242 164.393 172.797 164.393H171.014C171.291 161.72 173.247 152.747 187.072 151.409ZM164.393 131.34C162.318 129.426 159.55 127.75 155.963 126.582C159.326 121.361 162.137 115.861 164.393 110.123V128.226V131.34ZM164.343 144.666H162.565C152.113 144.666 149.134 136.561 148.286 131.682C162.035 132.997 164.051 141.815 164.343 144.666ZM197.271 62.4693C197.271 78.7869 183.998 92.06 167.681 92.06C151.363 92.06 138.09 78.7869 138.09 62.4693C138.09 46.1516 151.363 32.8786 167.681 32.8786C183.998 32.8786 197.271 46.1516 197.271 62.4693ZM6.57571 32.8786C6.57571 18.3758 18.3758 6.57571 32.8786 6.57571H96.9687C117.219 6.57571 136.472 15.8047 149.216 31.4286C138.636 37.7479 131.514 49.2784 131.514 62.4693C131.514 80.2763 144.462 95.0848 161.43 98.057C158.859 107.763 154.677 116.85 148.983 125.152C147.625 125.021 146.198 124.939 144.666 124.939H141.378V128.226C141.378 129.926 141.598 131.955 142.078 134.085L134.582 143.084L109.857 118.36C115.351 112.612 118.369 105.096 118.373 96.9062C118.376 92.9806 116.85 89.2883 114.075 86.5101C111.297 83.7285 107.605 82.1964 103.495 82.1964C99.8785 82.1964 96.4624 83.4589 93.7565 85.7769L93.2041 83.7515C89.2192 69.1436 78.6718 57.669 64.7181 52.2999C65.3823 50.3272 65.7571 48.223 65.7571 46.03C65.7571 35.1505 56.9095 26.3028 46.03 26.3028C35.1505 26.3028 26.3028 35.1505 26.3028 46.03H32.8786C32.8786 38.777 38.777 32.8786 46.03 32.8786C53.283 32.8786 59.1814 38.777 59.1814 46.03C59.1814 53.283 53.283 59.1814 46.03 59.1814H32.8786C18.3758 59.1814 6.57571 47.3813 6.57571 32.8786ZM146.523 197.271H106.642C110.074 189.354 117.827 184.12 126.582 184.12C135.338 184.12 143.087 189.354 146.523 197.271ZM82.7027 187.329L91.7509 180.865C96.0646 177.784 98.6357 172.783 98.6357 167.487V159.198L105.856 157.755L104.564 151.307L74.3055 157.357C72.7767 157.663 71.2149 157.817 69.6664 157.817C59.1452 157.817 50.2121 150.899 47.1577 141.378H54.3417C64.6655 141.378 73.9439 135.644 78.56 126.408L72.678 123.466C69.183 130.459 62.1569 134.802 54.3417 134.802H46.0629C46.0563 134.592 46.03 134.391 46.03 134.181V108.499H32.964C33.763 92.8589 39.7765 72.4282 41.8544 65.7571H46.03C52.3459 65.7571 57.9616 62.7652 61.575 58.1359C73.9636 62.6205 83.357 72.6452 86.8586 85.4842L90.3766 98.3956L97.5507 91.2215C99.1255 89.6401 101.24 88.7721 103.673 88.7721C105.843 88.7721 107.884 89.6171 109.42 91.1558C110.952 92.6879 111.797 94.7297 111.794 97.1233C111.79 103.581 109.272 109.653 104.708 114.217L100.562 118.363L131.514 149.315V178.004C129.903 177.722 128.263 177.544 126.582 177.544C114.348 177.544 103.531 185.343 99.6615 196.946L99.5563 197.271H74.0228C76.0908 193.342 79.0302 189.949 82.7027 187.329ZM153.609 197.271L153.5 196.946C150.919 189.203 145.211 183.226 138.087 180.056V149.144L144.741 141.161C147.802 146.628 153.29 151.241 162.561 151.241H164.393V197.271H153.609ZM174.256 124.939H171.215C172.599 115.828 179.918 106.484 196.952 105.33C195.943 111.757 191.738 124.939 174.256 124.939Z" fill="#fff" fill-opacity="1"/>
<path d="M62.4693 84.7083C61.2166 87.2136 58.6981 88.772 55.8936 88.772C53.0891 88.772 50.5706 87.2136 49.3179 84.7083L48.9727 84.0145L43.0907 86.9571L43.4359 87.6509C45.8098 92.3986 50.5837 95.3478 55.8936 95.3478C61.2035 95.3478 65.9775 92.3986 68.3513 87.6476L68.6965 86.9539L62.8145 84.0112L62.4693 84.7083Z" fill="#fff" fill-opacity="1"/>
</svg>
