<svg width="193" height="205" viewBox="0 0 193 205" fill="none" xmlns="http://www.w3.org/2000/svg">
<path d="M176.113 59.6947H159.186V46.4738L169.315 50.694C170.107 51.024 170.928 51.1801 171.737 51.1801C174.213 51.1797 176.568 49.7158 177.578 47.2914L180.13 41.1684C180.779 39.61 180.783 37.8923 180.14 36.3311C179.497 34.7703 178.285 33.5531 176.727 32.9041L98.9151 0.482888C97.3704 -0.160963 95.5982 -0.160963 94.0538 0.482888L41.6376 22.323C40.1069 22.9608 39.3829 24.719 40.0208 26.2501C40.6586 27.7809 42.4168 28.5048 43.948 27.867L96.3645 6.02689C96.4406 5.99526 96.5287 5.99526 96.6056 6.02689L174.417 38.4485C174.497 38.4817 174.554 38.5389 174.586 38.6182C174.619 38.6979 174.619 38.7784 174.586 38.8581L172.034 44.9815C172.001 45.0607 171.944 45.1176 171.864 45.1504C171.785 45.1837 171.704 45.1833 171.625 45.15L98.9151 14.8546C97.3704 14.2108 95.5982 14.2108 94.0538 14.8546L21.3451 45.15C21.2654 45.1833 21.1846 45.1833 21.1049 45.1504C21.0252 45.1176 20.9679 45.0607 20.9347 44.9811L18.3833 38.8581C18.3501 38.7784 18.3501 38.6979 18.3825 38.6178C18.4154 38.5381 18.4722 38.4809 18.5519 38.4477L31.935 32.8712C33.4658 32.2334 34.1897 30.4752 33.5519 28.9441C32.914 27.4133 31.1562 26.6886 29.6247 27.3272L16.2424 32.9041C14.684 33.5531 13.472 34.7703 12.8293 36.3315C12.1867 37.8923 12.1903 39.61 12.8393 41.1684L15.3907 47.2914C16.7313 50.5078 20.4382 52.0342 23.6551 50.6944L33.7833 46.4742V59.6947H16.8874C7.91634 59.6947 0.618164 66.9933 0.618164 75.964V175.498C0.618164 184.469 7.91634 191.767 16.8874 191.767H44.0312C45.6897 191.767 47.0343 190.423 47.0343 188.764C47.0343 187.106 45.6897 185.761 44.0312 185.761H16.8874C11.2281 185.761 6.62423 181.157 6.62423 175.498V75.9644C6.62423 70.3051 11.2281 65.7012 16.8874 65.7012H176.113C181.772 65.7012 186.376 70.3055 186.376 75.9644V175.499C186.376 181.158 181.772 185.762 176.113 185.762H159.186V178.502H159.469C162.431 178.502 165.028 176.401 165.645 173.506C166.522 169.386 170.009 165.901 174.126 165.03C177.017 164.419 179.116 161.822 179.116 158.856V92.6072C179.116 89.641 177.017 87.044 174.126 86.4326C170.009 85.5617 166.522 82.0761 165.645 77.9564C165.028 75.0619 162.431 72.9613 159.469 72.9613H33.5314C30.5696 72.9613 27.9722 75.0619 27.3556 77.9564C26.4783 82.0761 22.9908 85.5613 18.8746 86.4322C15.9829 87.044 13.8844 89.641 13.8844 92.6072V158.856C13.8844 161.822 15.9833 164.419 18.8746 165.03C22.9908 165.901 26.4783 169.387 27.3556 173.507C27.9722 176.401 30.5696 178.502 33.5314 178.502H113.381V185.762H55.9677C54.3092 185.762 52.9647 187.106 52.9647 188.765C52.9647 190.423 54.3092 191.768 55.9677 191.768H113.381V198.682C113.381 200.708 114.362 202.624 116.006 203.808C117.093 204.592 118.394 205 119.706 205C120.376 205 121.049 204.893 121.699 204.677L136.184 199.848C136.249 199.826 136.317 199.826 136.383 199.848L150.868 204.676C152.79 205.318 154.918 204.993 156.561 203.808C158.205 202.624 159.186 200.707 159.186 198.682V191.768H176.113C185.084 191.768 192.382 184.469 192.382 175.499V75.9644C192.382 66.9933 185.084 59.6947 176.113 59.6947ZM39.7894 43.9716L96.3641 20.3986C96.4402 20.367 96.5283 20.367 96.6052 20.3986L153.18 43.9716V59.6951H39.7894V43.9716ZM136.283 165.832C123.309 165.832 112.754 155.277 112.754 142.303C112.754 129.329 123.309 118.774 136.283 118.774C149.258 118.774 159.813 129.329 159.813 142.303C159.813 155.277 149.258 165.832 136.283 165.832ZM33.5314 172.496C33.3865 172.496 33.2596 172.394 33.2299 172.255C31.8521 165.787 26.5828 160.522 20.1179 159.154C19.9861 159.126 19.8904 159.001 19.8904 158.855V92.6072C19.8904 92.4618 19.9861 92.3361 20.1179 92.3081C26.5828 90.9403 31.8521 85.6754 33.2299 79.2076C33.2596 79.0683 33.3865 78.967 33.5314 78.967H159.468C159.613 78.967 159.74 79.0683 159.77 79.2072C161.148 85.675 166.417 90.9399 172.882 92.3077C173.014 92.3357 173.109 92.4614 173.109 92.6068V158.855C173.109 159.001 173.014 159.126 172.882 159.154C166.417 160.522 161.148 165.787 159.77 172.255C159.74 172.394 159.613 172.496 159.468 172.496H159.186V170.401C159.186 168.914 158.834 167.423 158.168 166.092L156.856 163.466C162.378 158.097 165.819 150.596 165.819 142.303C165.819 126.119 152.733 112.94 136.587 112.775C136.487 112.765 136.386 112.76 136.283 112.76H36.7559C35.0974 112.76 33.7529 114.105 33.7529 115.763C33.7529 117.421 35.0974 118.766 36.7559 118.766H118.466C115.808 120.783 113.502 123.24 111.654 126.026H36.7559C35.0974 126.026 33.7529 127.371 33.7529 129.029C33.7529 130.688 35.0974 132.032 36.7559 132.032H108.593C107.737 134.332 107.157 136.765 106.9 139.292H56.6552C54.9967 139.292 53.6522 140.637 53.6522 142.295C53.6522 143.954 54.9967 145.298 56.6552 145.298H106.899C107.617 152.394 110.862 158.751 115.711 163.466L114.398 166.091C113.733 167.422 113.381 168.913 113.381 170.401V172.495H33.5314V172.496ZM119.799 198.979C119.762 198.992 119.648 199.03 119.517 198.936C119.387 198.842 119.387 198.721 119.387 198.682V170.401C119.387 169.84 119.52 169.279 119.77 168.777L120.526 167.265C122.431 168.472 124.482 169.466 126.647 170.215V196.696L119.799 198.979ZM134.285 194.151L132.653 194.694V171.607C133.844 171.754 135.054 171.838 136.283 171.838C137.513 171.838 138.723 171.754 139.913 171.607V194.694L138.282 194.151C136.993 193.721 135.574 193.721 134.285 194.151ZM153.049 198.936C152.919 199.03 152.805 198.992 152.767 198.979L145.919 196.697V170.216C148.084 169.466 150.135 168.472 152.04 167.266L152.796 168.778C153.047 169.279 153.18 169.841 153.18 170.401V198.682C153.18 198.722 153.18 198.842 153.049 198.936Z" fill="#6FB9C8" fill-opacity="0.5"/>
<path d="M176.942 78.9971C178.601 78.9971 179.945 77.6526 179.945 75.9941C179.945 74.3357 178.601 72.9912 176.942 72.9912H175.284C173.626 72.9912 172.281 74.3357 172.281 75.9941C172.281 77.6526 173.626 78.9971 175.284 78.9971H176.942Z" fill="#6FB9C8" fill-opacity="0.5"/>
<path d="M16.0581 78.9971H17.7161C19.3745 78.9971 20.7191 77.6526 20.7191 75.9941C20.7191 74.3357 19.3745 72.9912 17.7161 72.9912H16.0581C14.3997 72.9912 13.0552 74.3357 13.0552 75.9941C13.0552 77.6526 14.3997 78.9971 16.0581 78.9971Z" fill="#6FB9C8" fill-opacity="0.5"/>
<path d="M16.0581 172.496C14.3997 172.496 13.0552 173.84 13.0552 175.499C13.0552 177.157 14.3997 178.501 16.0581 178.501H17.7161C19.3745 178.501 20.7191 177.157 20.7191 175.499C20.7191 173.84 19.3745 172.496 17.7161 172.496H16.0581Z" fill="#6FB9C8" fill-opacity="0.5"/>
<path d="M176.943 172.496H175.284C173.626 172.496 172.281 173.84 172.281 175.499C172.281 177.157 173.626 178.501 175.284 178.501H176.943C178.601 178.501 179.946 177.157 179.946 175.499C179.946 173.84 178.601 172.496 176.943 172.496Z" fill="#6FB9C8" fill-opacity="0.5"/>
<path d="M136.283 126.033C127.312 126.033 120.014 133.332 120.014 142.303C120.014 151.273 127.313 158.572 136.283 158.572C145.254 158.572 152.553 151.273 152.553 142.303C152.553 133.332 145.254 126.033 136.283 126.033ZM136.283 152.566C130.624 152.566 126.02 147.962 126.02 142.303C126.02 136.644 130.624 132.04 136.283 132.04C141.942 132.04 146.547 136.644 146.547 142.303C146.547 147.962 141.942 152.566 136.283 152.566Z" fill="#6FB9C8" fill-opacity="0.5"/>
<path d="M137.112 139.3H135.454C133.795 139.3 132.451 140.644 132.451 142.303C132.451 143.961 133.795 145.306 135.454 145.306H137.112C138.771 145.306 140.115 143.961 140.115 142.303C140.115 140.644 138.771 139.3 137.112 139.3Z" fill="#6FB9C8" fill-opacity="0.5"/>
<path d="M73.1252 105.5H119.784C123.206 105.5 125.99 102.716 125.99 99.2937V92.4336C125.99 89.0113 123.206 86.2273 119.784 86.2273H73.1252C69.703 86.2273 66.9189 89.0113 66.9189 92.4336V99.2933C66.9189 102.716 69.703 105.5 73.1252 105.5ZM72.925 92.4336C72.925 92.3231 73.0147 92.2334 73.1252 92.2334H119.784C119.894 92.2334 119.984 92.3231 119.984 92.4336V99.2933C119.984 99.4038 119.894 99.4935 119.784 99.4935H73.1252C73.0147 99.4935 72.925 99.4038 72.925 99.2933V92.4336Z" fill="#6FB9C8" fill-opacity="0.5"/>
<path d="M56.6553 159.192H43.4195C41.7611 159.192 40.4165 160.536 40.4165 162.195C40.4165 163.853 41.7611 165.198 43.4195 165.198H56.6553C58.3138 165.198 59.6583 163.853 59.6583 162.195C59.6583 160.536 58.3138 159.192 56.6553 159.192Z" fill="#6FB9C8" fill-opacity="0.5"/>
</svg>
