<svg width="19" height="19" viewBox="0 0 19 19" fill="none" xmlns="http://www.w3.org/2000/svg">
<path d="M2.188 4.376C3.3964 4.376 4.376 3.3964 4.376 2.188C4.376 0.979601 3.3964 0 2.188 0C0.979601 0 0 0.979601 0 2.188C0 3.3964 0.979601 4.376 2.188 4.376Z" fill="white"/>
<path d="M6.4418 6.03389V18.1729H10.2108V12.1699C10.2108 10.5859 10.5088 9.05189 12.4728 9.05189C14.4098 9.05189 14.4338 10.8629 14.4338 12.2699V18.1739H18.2048V11.5169C18.2048 8.24689 17.5008 5.73389 13.6788 5.73389C11.8438 5.73389 10.6138 6.74089 10.1108 7.69389H10.0598V6.03389H6.4418ZM0.299805 6.03389H4.0748V18.1729H0.299805V6.03389Z" fill="white"/>
</svg>
