<svg width="14" height="17" viewBox="0 0 14 17" fill="none" xmlns="http://www.w3.org/2000/svg">
<path d="M7 0.75C8.79021 0.75 10.5071 1.46116 11.773 2.72703C13.0388 3.9929 13.75 5.70979 13.75 7.5C13.75 10.2945 11.62 13.2225 7.45 16.35C7.32018 16.4474 7.16228 16.5 7 16.5C6.83772 16.5 6.67982 16.4474 6.55 16.35C2.38 13.2225 0.25 10.2945 0.25 7.5C0.25 5.70979 0.961159 3.9929 2.22703 2.72703C3.4929 1.46116 5.20979 0.75 7 0.75ZM7 5.25C6.40326 5.25 5.83097 5.48705 5.40901 5.90901C4.98705 6.33097 4.75 6.90326 4.75 7.5C4.75 8.09674 4.98705 8.66903 5.40901 9.09099C5.83097 9.51295 6.40326 9.75 7 9.75C7.59674 9.75 8.16903 9.51295 8.59099 9.09099C9.01295 8.66903 9.25 8.09674 9.25 7.5C9.25 6.90326 9.01295 6.33097 8.59099 5.90901C8.16903 5.48705 7.59674 5.25 7 5.25Z" fill="white"/>
</svg>
