<svg width="18" height="17" viewBox="0 0 18 17" fill="none" xmlns="http://www.w3.org/2000/svg">
<path d="M11.7062 11.925L13.1061 10.525C13.2947 10.3388 13.5333 10.2113 13.7929 10.1581C14.0525 10.1048 14.322 10.1281 14.5687 10.225L16.2749 10.9063C16.5242 11.0074 16.7379 11.1801 16.8891 11.4026C17.0404 11.625 17.1224 11.8873 17.1249 12.1563V15.2813C17.1234 15.4642 17.085 15.645 17.0118 15.8128C16.9387 15.9805 16.8323 16.1317 16.6992 16.2572C16.566 16.3828 16.4089 16.4801 16.2371 16.5433C16.0654 16.6065 15.8827 16.6343 15.6999 16.625C3.74365 15.8813 1.33115 5.75626 0.874901 1.88126C0.853721 1.69097 0.873072 1.49835 0.931681 1.31608C0.990289 1.1338 1.08683 0.966006 1.21494 0.82372C1.34306 0.681435 1.49985 0.567888 1.675 0.49055C1.85015 0.413212 2.03969 0.373835 2.23115 0.37501H5.2499C5.51928 0.375808 5.78226 0.457177 6.00502 0.608654C6.22778 0.76013 6.40013 0.974785 6.4999 1.22501L7.18115 2.93126C7.28131 3.17693 7.30686 3.44666 7.25462 3.70677C7.20237 3.96687 7.07465 4.20582 6.8874 4.39376L5.4874 5.79376C5.4874 5.79376 6.29365 11.25 11.7062 11.925Z" fill="white"/>
</svg>
