<svg width="19" height="19" viewBox="0 0 19 19" fill="none" xmlns="http://www.w3.org/2000/svg">
<path d="M0.753512 18.25L1.93651 13.903C1.15701 12.5667 0.747471 11.047 0.750012 9.5C0.750012 4.66738 4.66739 0.75 9.50001 0.75C14.3326 0.75 18.25 4.66738 18.25 9.5C18.25 14.3326 14.3326 18.25 9.50001 18.25C7.95369 18.2525 6.43459 17.8433 5.09876 17.0644L0.753512 18.25ZM6.34214 5.3945C6.22914 5.40152 6.11873 5.43128 6.01751 5.482C5.92259 5.53575 5.83595 5.60295 5.76026 5.6815C5.65526 5.78038 5.59576 5.86613 5.53189 5.94925C5.2085 6.37012 5.03455 6.88674 5.03751 7.4175C5.03926 7.84625 5.15126 8.26363 5.32626 8.65387C5.68414 9.44312 6.27301 10.2787 7.05089 11.0531C7.23814 11.2395 7.42101 11.4268 7.61789 11.6009C8.58335 12.4509 9.73386 13.0639 10.9779 13.3911L11.4758 13.4673C11.6376 13.476 11.7995 13.4637 11.9623 13.4559C12.2171 13.4427 12.4659 13.3737 12.6911 13.2538C12.8057 13.1947 12.9175 13.1305 13.0263 13.0612C13.0263 13.0612 13.0639 13.0367 13.1356 12.9825C13.2538 12.895 13.3264 12.8329 13.4244 12.7305C13.497 12.6553 13.56 12.5669 13.6081 12.4663C13.6764 12.3236 13.7446 12.0515 13.7726 11.8249C13.7936 11.6516 13.7875 11.5571 13.7849 11.4985C13.7814 11.4049 13.7035 11.3077 13.6186 11.2666L13.1094 11.0382C13.1094 11.0382 12.3481 10.7066 11.8835 10.4949C11.8345 10.4735 11.782 10.4614 11.7286 10.459C11.6688 10.4529 11.6083 10.4596 11.5512 10.4788C11.4942 10.4979 11.4419 10.5291 11.3979 10.5701V10.5684C11.3935 10.5684 11.3349 10.6182 10.7023 11.3848C10.666 11.4335 10.6159 11.4704 10.5586 11.4907C10.5012 11.5109 10.4392 11.5137 10.3803 11.4985C10.3232 11.4833 10.2674 11.464 10.2131 11.4408C10.1046 11.3953 10.067 11.3778 9.99264 11.3454L9.98826 11.3436C9.48768 11.1251 9.02421 10.8299 8.61451 10.4686C8.50426 10.3724 8.40189 10.2674 8.29689 10.1659C7.95264 9.83621 7.65264 9.46326 7.40439 9.05638L7.35276 8.97325C7.31568 8.91739 7.2857 8.85714 7.26351 8.79387C7.23026 8.66525 7.31689 8.562 7.31689 8.562C7.31689 8.562 7.52951 8.32925 7.62839 8.20325C7.71071 8.09853 7.78753 7.98959 7.85851 7.87688C7.96176 7.71063 7.99414 7.54 7.93989 7.40788C7.69489 6.80938 7.44114 6.2135 7.18039 5.622C7.12876 5.50475 6.97564 5.42075 6.83651 5.40412C6.78926 5.39887 6.74201 5.39362 6.69476 5.39012C6.57725 5.38429 6.4595 5.38546 6.34214 5.39363V5.3945Z" fill="white"/>
</svg>
